<svg xmlns="http://www.w3.org/2000/svg" xmlns:xlink="http://www.w3.org/1999/xlink" width="150" zoomAndPan="magnify" viewBox="0 0 112.5 112.499997" height="150" preserveAspectRatio="xMidYMid meet" version="1.0"><defs><clipPath id="1dd844e458"><path d="M 12.71875 5.601562 L 99.335938 5.601562 L 99.335938 106.402344 L 12.71875 106.402344 Z M 12.71875 5.601562 " clip-rule="nonzero"/></clipPath><clipPath id="5faa39598d"><path d="M 18.871094 11.132812 L 92.792969 11.132812 L 92.792969 85.054688 L 18.871094 85.054688 Z M 18.871094 11.132812 " clip-rule="nonzero"/></clipPath><clipPath id="517d48132a"><path d="M 31.113281 23.375 L 81.140625 23.375 L 81.140625 73.402344 L 31.113281 73.402344 Z M 31.113281 23.375 " clip-rule="nonzero"/></clipPath></defs><g clip-path="url(#1dd844e458)"><path fill="#c1272d" d="M 99.195312 48.800781 C 99.195312 24.941406 79.855469 5.601562 55.992188 5.601562 C 32.136719 5.601562 12.792969 24.941406 12.792969 48.800781 C 12.792969 68.460938 25.929688 85.039062 43.898438 90.273438 L 55.992188 106.402344 L 68.089844 90.273438 C 86.0625 85.039062 99.195312 68.460938 99.195312 48.800781 " fill-opacity="1" fill-rule="nonzero"/></g><g clip-path="url(#5faa39598d)"><path fill="#f9fcff" d="M 93.121094 48.257812 C 93.121094 49.472656 93.0625 50.6875 92.941406 51.894531 C 92.824219 53.105469 92.644531 54.308594 92.40625 55.5 C 92.171875 56.691406 91.875 57.871094 91.523438 59.035156 C 91.167969 60.199219 90.761719 61.339844 90.292969 62.464844 C 89.828125 63.585938 89.308594 64.683594 88.738281 65.757812 C 88.164062 66.828125 87.539062 67.871094 86.863281 68.882812 C 86.1875 69.894531 85.464844 70.867188 84.695312 71.808594 C 83.921875 72.75 83.105469 73.648438 82.246094 74.507812 C 81.386719 75.367188 80.488281 76.183594 79.546875 76.953125 C 78.609375 77.726562 77.632812 78.449219 76.621094 79.125 C 75.609375 79.800781 74.570312 80.425781 73.496094 80.996094 C 72.425781 81.570312 71.328125 82.089844 70.203125 82.554688 C 69.082031 83.019531 67.9375 83.429688 66.773438 83.78125 C 65.609375 84.136719 64.433594 84.429688 63.238281 84.667969 C 62.046875 84.90625 60.84375 85.082031 59.636719 85.203125 C 58.425781 85.320312 57.210938 85.382812 55.996094 85.382812 C 54.78125 85.382812 53.566406 85.320312 52.359375 85.203125 C 51.148438 85.082031 49.945312 84.90625 48.753906 84.667969 C 47.5625 84.429688 46.382812 84.136719 45.21875 83.78125 C 44.058594 83.429688 42.914062 83.019531 41.789062 82.554688 C 40.667969 82.089844 39.570312 81.570312 38.496094 80.996094 C 37.425781 80.425781 36.382812 79.800781 35.371094 79.125 C 34.359375 78.449219 33.386719 77.726562 32.445312 76.953125 C 31.503906 76.183594 30.605469 75.367188 29.746094 74.507812 C 28.886719 73.648438 28.070312 72.75 27.300781 71.808594 C 26.527344 70.867188 25.804688 69.894531 25.128906 68.882812 C 24.453125 67.871094 23.828125 66.828125 23.257812 65.757812 C 22.683594 64.683594 22.164062 63.585938 21.699219 62.464844 C 21.234375 61.339844 20.824219 60.199219 20.472656 59.035156 C 20.117188 57.871094 19.824219 56.691406 19.585938 55.5 C 19.347656 54.308594 19.171875 53.105469 19.050781 51.894531 C 18.933594 50.6875 18.871094 49.472656 18.871094 48.257812 C 18.871094 47.042969 18.933594 45.828125 19.050781 44.617188 C 19.171875 43.410156 19.347656 42.207031 19.585938 41.015625 C 19.824219 39.824219 20.117188 38.644531 20.472656 37.480469 C 20.824219 36.316406 21.234375 35.175781 21.699219 34.050781 C 22.164062 32.925781 22.683594 31.828125 23.257812 30.757812 C 23.828125 29.683594 24.453125 28.644531 25.128906 27.632812 C 25.804688 26.621094 26.527344 25.644531 27.300781 24.707031 C 28.070312 23.765625 28.886719 22.867188 29.746094 22.007812 C 30.605469 21.148438 31.503906 20.332031 32.445312 19.558594 C 33.386719 18.789062 34.359375 18.066406 35.371094 17.390625 C 36.382812 16.714844 37.425781 16.089844 38.496094 15.515625 C 39.570312 14.945312 40.667969 14.425781 41.789062 13.960938 C 42.914062 13.492188 44.058594 13.085938 45.21875 12.730469 C 46.382812 12.378906 47.5625 12.082031 48.753906 11.847656 C 49.945312 11.609375 51.148438 11.429688 52.359375 11.3125 C 53.566406 11.191406 54.78125 11.132812 55.996094 11.132812 C 57.210938 11.132812 58.425781 11.191406 59.636719 11.3125 C 60.84375 11.429688 62.046875 11.609375 63.238281 11.847656 C 64.433594 12.082031 65.609375 12.378906 66.773438 12.730469 C 67.9375 13.085938 69.082031 13.492188 70.203125 13.960938 C 71.328125 14.425781 72.425781 14.945312 73.496094 15.515625 C 74.570312 16.089844 75.609375 16.714844 76.621094 17.390625 C 77.632812 18.066406 78.609375 18.789062 79.546875 19.558594 C 80.488281 20.332031 81.386719 21.148438 82.246094 22.007812 C 83.105469 22.867188 83.921875 23.765625 84.695312 24.707031 C 85.464844 25.644531 86.1875 26.621094 86.863281 27.632812 C 87.539062 28.644531 88.164062 29.683594 88.738281 30.757812 C 89.308594 31.828125 89.828125 32.925781 90.292969 34.050781 C 90.761719 35.175781 91.167969 36.316406 91.523438 37.480469 C 91.875 38.644531 92.171875 39.824219 92.40625 41.015625 C 92.644531 42.207031 92.824219 43.410156 92.941406 44.617188 C 93.0625 45.828125 93.121094 47.042969 93.121094 48.257812 Z M 93.121094 48.257812 " fill-opacity="1" fill-rule="nonzero"/></g><g clip-path="url(#517d48132a)"><path fill="#c1272d" d="M 56.128906 23.375 C 42.335938 23.375 31.113281 34.597656 31.113281 48.390625 C 31.113281 62.183594 42.335938 73.402344 56.128906 73.402344 C 69.921875 73.402344 81.140625 62.183594 81.140625 48.390625 C 81.140625 34.597656 69.921875 23.375 56.128906 23.375 Z M 56.128906 69.71875 C 44.367188 69.71875 34.796875 60.152344 34.796875 48.390625 C 34.796875 36.628906 44.367188 27.058594 56.128906 27.058594 C 67.890625 27.058594 77.460938 36.628906 77.460938 48.390625 C 77.460938 60.152344 67.890625 69.71875 56.128906 69.71875 Z M 56.128906 69.71875 " fill-opacity="1" fill-rule="nonzero"/></g><path fill="#c1272d" d="M 69.78125 42.148438 L 62.558594 42.148438 C 62.453125 42.148438 62.371094 42.0625 62.371094 41.957031 L 62.371094 34.734375 C 62.371094 34.632812 62.285156 34.546875 62.179688 34.546875 L 50.078125 34.546875 C 49.972656 34.546875 49.886719 34.632812 49.886719 34.734375 L 49.886719 41.957031 C 49.886719 42.0625 49.800781 42.148438 49.695312 42.148438 L 42.476562 42.148438 C 42.371094 42.148438 42.285156 42.234375 42.285156 42.335938 L 42.285156 54.441406 C 42.285156 54.546875 42.371094 54.628906 42.476562 54.628906 L 49.695312 54.628906 C 49.800781 54.628906 49.886719 54.714844 49.886719 54.820312 L 49.886719 62.042969 C 49.886719 62.148438 49.972656 62.230469 50.078125 62.230469 L 62.179688 62.230469 C 62.285156 62.230469 62.371094 62.148438 62.371094 62.042969 L 62.371094 54.820312 C 62.371094 54.714844 62.453125 54.628906 62.558594 54.628906 L 69.78125 54.628906 C 69.886719 54.628906 69.972656 54.546875 69.972656 54.441406 L 69.972656 42.335938 C 69.972656 42.234375 69.886719 42.148438 69.78125 42.148438 Z M 67.339844 51.808594 C 67.339844 51.914062 67.257812 52 67.152344 52 L 59.929688 52 C 59.824219 52 59.738281 52.085938 59.738281 52.191406 L 59.738281 59.414062 C 59.738281 59.515625 59.652344 59.601562 59.550781 59.601562 L 52.707031 59.601562 C 52.601562 59.601562 52.515625 59.515625 52.515625 59.414062 L 52.515625 52.191406 C 52.515625 52.085938 52.433594 52 52.328125 52 L 45.105469 52 C 45 52 44.914062 51.914062 44.914062 51.808594 L 44.914062 44.96875 C 44.914062 44.863281 45 44.777344 45.105469 44.777344 L 52.328125 44.777344 C 52.433594 44.777344 52.515625 44.695312 52.515625 44.589844 L 52.515625 37.367188 C 52.515625 37.261719 52.601562 37.175781 52.707031 37.175781 L 59.550781 37.175781 C 59.652344 37.175781 59.738281 37.261719 59.738281 37.367188 L 59.738281 44.589844 C 59.738281 44.695312 59.824219 44.777344 59.929688 44.777344 L 67.152344 44.777344 C 67.257812 44.777344 67.339844 44.863281 67.339844 44.96875 Z M 67.339844 51.808594 " fill-opacity="1" fill-rule="nonzero"/></svg>