<svg xmlns="http://www.w3.org/2000/svg" xmlns:xlink="http://www.w3.org/1999/xlink" width="250" zoomAndPan="magnify" viewBox="0 0 187.5 56.249996" height="75" preserveAspectRatio="xMidYMid meet" version="1.0"><defs><g/></defs><g fill="#fcc509" fill-opacity="0.4"><g transform="translate(0.650868, 36.917377)"><g><path d="M 9.515625 0.40625 C 14.328125 0.40625 17.289062 -1.886719 17.289062 -5.714844 C 17.289062 -8.933594 15.171875 -10.847656 10.125 -12.039062 C 7.019531 -12.761719 5.945312 -13.546875 5.945312 -14.792969 C 5.945312 -16.128906 7.136719 -16.941406 9.078125 -16.941406 C 11.195312 -16.941406 12.472656 -15.839844 12.472656 -14.011719 L 16.910156 -14.011719 C 16.910156 -18.101562 13.835938 -20.710938 9.019531 -20.710938 C 4.351562 -20.710938 1.449219 -18.417969 1.449219 -14.707031 C 1.449219 -11.398438 3.683594 -9.425781 8.441406 -8.414062 C 11.3125 -7.804688 12.617188 -6.960938 12.617188 -5.539062 C 12.617188 -4.175781 11.398438 -3.394531 9.484375 -3.394531 C 7.25 -3.394531 5.800781 -4.523438 5.800781 -6.46875 L 1.277344 -6.46875 C 1.277344 -2.261719 4.410156 0.40625 9.515625 0.40625 Z M 9.515625 0.40625 "/></g></g></g><g fill="#fcc509" fill-opacity="0.4"><g transform="translate(18.110987, 36.917377)"><g><path d="M 9.398438 0.40625 C 13.140625 0.40625 16.097656 -1.507812 17.433594 -4.726562 L 12.964844 -4.726562 C 12.242188 -3.714844 10.9375 -3.132812 9.484375 -3.132812 C 7.484375 -3.132812 5.917969 -4.265625 5.511719 -6.351562 L 17.722656 -6.351562 C 17.984375 -11.921875 14.679688 -15.636719 9.457031 -15.636719 C 4.523438 -15.636719 1.132812 -12.355469 1.132812 -7.628906 C 1.132812 -2.871094 4.496094 0.40625 9.398438 0.40625 Z M 5.539062 -9.136719 C 6.035156 -10.992188 7.542969 -12.125 9.484375 -12.125 C 11.515625 -12.125 12.964844 -10.992188 13.460938 -9.136719 Z M 5.539062 -9.136719 "/></g></g></g><g fill="#fcc509" fill-opacity="0.4"><g transform="translate(35.803135, 36.917377)"><g><path d="M 9.457031 0.40625 C 13.75 0.40625 16.96875 -2.117188 17.78125 -6.121094 L 13.488281 -6.121094 C 12.878906 -4.46875 11.371094 -3.394531 9.515625 -3.394531 C 7.136719 -3.394531 5.484375 -5.132812 5.484375 -7.628906 C 5.484375 -10.125 7.136719 -11.863281 9.515625 -11.863281 C 11.253906 -11.863281 12.675781 -10.9375 13.402344 -9.398438 L 17.636719 -9.398438 C 16.941406 -13.167969 13.691406 -15.636719 9.457031 -15.636719 C 4.582031 -15.636719 1.132812 -12.300781 1.132812 -7.628906 C 1.132812 -2.929688 4.554688 0.40625 9.457031 0.40625 Z M 9.457031 0.40625 "/></g></g></g><g fill="#fcc509" fill-opacity="0.4"><g transform="translate(53.52428, 36.917377)"><g><path d="M 8.265625 0.40625 C 10.269531 0.40625 12.066406 -0.289062 13.285156 -1.710938 L 13.75 0 L 17.027344 0 L 17.027344 -15.230469 L 12.617188 -15.230469 L 12.617188 -7.28125 C 12.617188 -4.875 11.3125 -3.394531 9.3125 -3.394531 C 7.453125 -3.394531 6.324219 -4.699219 6.324219 -6.933594 L 6.324219 -15.230469 L 1.914062 -15.230469 L 1.914062 -6.496094 C 1.914062 -2.261719 4.320312 0.40625 8.265625 0.40625 Z M 8.265625 0.40625 "/></g></g></g><g fill="#fcc509" fill-opacity="0.4"><g transform="translate(71.622483, 36.917377)"><g><path d="M 2.203125 0 L 6.613281 0 L 6.613281 -6.730469 C 6.613281 -10.007812 8.152344 -11.226562 10.675781 -11.226562 L 12.355469 -11.226562 L 12.355469 -15.230469 L 10.703125 -15.230469 C 8.46875 -15.230469 7.050781 -14.621094 6.0625 -13.199219 L 5.484375 -15.230469 L 2.203125 -15.230469 Z M 2.203125 0 "/></g></g></g><g fill="#fcc509" fill-opacity="0.4"><g transform="translate(83.832912, 36.917377)"><g><path d="M 9.398438 0.40625 C 13.140625 0.40625 16.097656 -1.507812 17.433594 -4.726562 L 12.964844 -4.726562 C 12.242188 -3.714844 10.9375 -3.132812 9.484375 -3.132812 C 7.484375 -3.132812 5.917969 -4.265625 5.511719 -6.351562 L 17.722656 -6.351562 C 17.984375 -11.921875 14.679688 -15.636719 9.457031 -15.636719 C 4.523438 -15.636719 1.132812 -12.355469 1.132812 -7.628906 C 1.132812 -2.871094 4.496094 0.40625 9.398438 0.40625 Z M 5.539062 -9.136719 C 6.035156 -10.992188 7.542969 -12.125 9.484375 -12.125 C 11.515625 -12.125 12.964844 -10.992188 13.460938 -9.136719 Z M 5.539062 -9.136719 "/></g></g></g><g fill="#5cc90c" fill-opacity="1"><g transform="translate(0.650868, 36.917377)"><g><path d="M 9.515625 0.40625 C 14.328125 0.40625 17.289062 -1.886719 17.289062 -5.714844 C 17.289062 -8.933594 15.171875 -10.847656 10.125 -12.039062 C 7.019531 -12.761719 5.945312 -13.546875 5.945312 -14.792969 C 5.945312 -16.128906 7.136719 -16.941406 9.078125 -16.941406 C 11.195312 -16.941406 12.472656 -15.839844 12.472656 -14.011719 L 16.910156 -14.011719 C 16.910156 -18.101562 13.835938 -20.710938 9.019531 -20.710938 C 4.351562 -20.710938 1.449219 -18.417969 1.449219 -14.707031 C 1.449219 -11.398438 3.683594 -9.425781 8.441406 -8.414062 C 11.3125 -7.804688 12.617188 -6.960938 12.617188 -5.539062 C 12.617188 -4.175781 11.398438 -3.394531 9.484375 -3.394531 C 7.25 -3.394531 5.800781 -4.523438 5.800781 -6.46875 L 1.277344 -6.46875 C 1.277344 -2.261719 4.410156 0.40625 9.515625 0.40625 Z M 9.515625 0.40625 "/></g></g></g><g fill="#5cc90c" fill-opacity="1"><g transform="translate(18.110987, 36.917377)"><g><path d="M 9.398438 0.40625 C 13.140625 0.40625 16.097656 -1.507812 17.433594 -4.726562 L 12.964844 -4.726562 C 12.242188 -3.714844 10.9375 -3.132812 9.484375 -3.132812 C 7.484375 -3.132812 5.917969 -4.265625 5.511719 -6.351562 L 17.722656 -6.351562 C 17.984375 -11.921875 14.679688 -15.636719 9.457031 -15.636719 C 4.523438 -15.636719 1.132812 -12.355469 1.132812 -7.628906 C 1.132812 -2.871094 4.496094 0.40625 9.398438 0.40625 Z M 5.539062 -9.136719 C 6.035156 -10.992188 7.542969 -12.125 9.484375 -12.125 C 11.515625 -12.125 12.964844 -10.992188 13.460938 -9.136719 Z M 5.539062 -9.136719 "/></g></g></g><g fill="#5cc90c" fill-opacity="1"><g transform="translate(35.803135, 36.917377)"><g><path d="M 9.457031 0.40625 C 13.75 0.40625 16.96875 -2.117188 17.78125 -6.121094 L 13.488281 -6.121094 C 12.878906 -4.46875 11.371094 -3.394531 9.515625 -3.394531 C 7.136719 -3.394531 5.484375 -5.132812 5.484375 -7.628906 C 5.484375 -10.125 7.136719 -11.863281 9.515625 -11.863281 C 11.253906 -11.863281 12.675781 -10.9375 13.402344 -9.398438 L 17.636719 -9.398438 C 16.941406 -13.167969 13.691406 -15.636719 9.457031 -15.636719 C 4.582031 -15.636719 1.132812 -12.300781 1.132812 -7.628906 C 1.132812 -2.929688 4.554688 0.40625 9.457031 0.40625 Z M 9.457031 0.40625 "/></g></g></g><g fill="#5cc90c" fill-opacity="1"><g transform="translate(53.52428, 36.917377)"><g><path d="M 8.265625 0.40625 C 10.269531 0.40625 12.066406 -0.289062 13.285156 -1.710938 L 13.75 0 L 17.027344 0 L 17.027344 -15.230469 L 12.617188 -15.230469 L 12.617188 -7.28125 C 12.617188 -4.875 11.3125 -3.394531 9.3125 -3.394531 C 7.453125 -3.394531 6.324219 -4.699219 6.324219 -6.933594 L 6.324219 -15.230469 L 1.914062 -15.230469 L 1.914062 -6.496094 C 1.914062 -2.261719 4.320312 0.40625 8.265625 0.40625 Z M 8.265625 0.40625 "/></g></g></g><g fill="#5cc90c" fill-opacity="1"><g transform="translate(71.622483, 36.917377)"><g><path d="M 2.203125 0 L 6.613281 0 L 6.613281 -6.730469 C 6.613281 -10.007812 8.152344 -11.226562 10.675781 -11.226562 L 12.355469 -11.226562 L 12.355469 -15.230469 L 10.703125 -15.230469 C 8.46875 -15.230469 7.050781 -14.621094 6.0625 -13.199219 L 5.484375 -15.230469 L 2.203125 -15.230469 Z M 2.203125 0 "/></g></g></g><g fill="#5cc90c" fill-opacity="1"><g transform="translate(83.832912, 36.917377)"><g><path d="M 9.398438 0.40625 C 13.140625 0.40625 16.097656 -1.507812 17.433594 -4.726562 L 12.964844 -4.726562 C 12.242188 -3.714844 10.9375 -3.132812 9.484375 -3.132812 C 7.484375 -3.132812 5.917969 -4.265625 5.511719 -6.351562 L 17.722656 -6.351562 C 17.984375 -11.921875 14.679688 -15.636719 9.457031 -15.636719 C 4.523438 -15.636719 1.132812 -12.355469 1.132812 -7.628906 C 1.132812 -2.871094 4.496094 0.40625 9.398438 0.40625 Z M 5.539062 -9.136719 C 6.035156 -10.992188 7.542969 -12.125 9.484375 -12.125 C 11.515625 -12.125 12.964844 -10.992188 13.460938 -9.136719 Z M 5.539062 -9.136719 "/></g></g></g><g fill="#3b3f3f" fill-opacity="1"><g transform="translate(102.674022, 36.917377)"><g><path d="M 7.308594 0 L 11.921875 0 L 11.921875 -15.984375 L 18.363281 -15.984375 L 18.363281 -20.304688 L 0.871094 -20.304688 L 0.871094 -15.984375 L 7.308594 -15.984375 Z M 7.308594 0 "/></g></g></g><g fill="#3b3f3f" fill-opacity="1"><g transform="translate(120.772224, 36.917377)"><g><path d="M 2.203125 0 L 6.613281 0 L 6.613281 -6.730469 C 6.613281 -10.007812 8.152344 -11.226562 10.675781 -11.226562 L 12.355469 -11.226562 L 12.355469 -15.230469 L 10.703125 -15.230469 C 8.46875 -15.230469 7.050781 -14.621094 6.0625 -13.199219 L 5.484375 -15.230469 L 2.203125 -15.230469 Z M 2.203125 0 "/></g></g></g><g fill="#3b3f3f" fill-opacity="1"><g transform="translate(132.982651, 36.917377)"><g><path d="M 7.28125 0.289062 C 9.542969 0.289062 11.398438 -0.433594 12.707031 -1.769531 L 13.199219 0 L 16.476562 0 L 16.476562 -9.167969 C 16.476562 -13.199219 13.75 -15.636719 9.195312 -15.636719 C 5.308594 -15.636719 2.753906 -13.777344 2.203125 -10.472656 L 6.441406 -10.472656 C 6.699219 -11.546875 7.804688 -12.269531 9.222656 -12.269531 C 10.964844 -12.269531 12.152344 -11.285156 12.152344 -9.777344 L 12.152344 -9.078125 L 6.644531 -9.078125 C 3.480469 -9.078125 1.449219 -7.25 1.449219 -4.4375 C 1.449219 -1.507812 3.683594 0.289062 7.28125 0.289062 Z M 5.800781 -4.613281 C 5.800781 -5.65625 6.671875 -6.324219 8.007812 -6.324219 L 12.183594 -6.324219 C 12.097656 -4.265625 10.5 -2.871094 8.296875 -2.871094 C 6.789062 -2.871094 5.800781 -3.566406 5.800781 -4.613281 Z M 5.800781 -4.613281 "/></g></g></g><g fill="#3b3f3f" fill-opacity="1"><g transform="translate(150.239737, 36.917377)"><g><path d="M 9.457031 0.40625 C 13.75 0.40625 16.96875 -2.117188 17.78125 -6.121094 L 13.488281 -6.121094 C 12.878906 -4.46875 11.371094 -3.394531 9.515625 -3.394531 C 7.136719 -3.394531 5.484375 -5.132812 5.484375 -7.628906 C 5.484375 -10.125 7.136719 -11.863281 9.515625 -11.863281 C 11.253906 -11.863281 12.675781 -10.9375 13.402344 -9.398438 L 17.636719 -9.398438 C 16.941406 -13.167969 13.691406 -15.636719 9.457031 -15.636719 C 4.582031 -15.636719 1.132812 -12.300781 1.132812 -7.628906 C 1.132812 -2.929688 4.554688 0.40625 9.457031 0.40625 Z M 9.457031 0.40625 "/></g></g></g><g fill="#3b3f3f" fill-opacity="1"><g transform="translate(167.960883, 36.917377)"><g><path d="M 2.203125 0 L 6.613281 0 L 6.613281 -5.800781 L 8.992188 -5.800781 L 12.355469 0 L 17.492188 0 L 13.113281 -7.28125 C 13.921875 -8.007812 14.5625 -9.019531 15.054688 -10.382812 L 16.824219 -15.230469 L 12.066406 -15.230469 L 10.992188 -11.921875 C 10.414062 -10.210938 9.601562 -9.746094 7.746094 -9.746094 L 6.613281 -9.746094 L 6.613281 -21.464844 L 2.203125 -21.464844 Z M 2.203125 0 "/></g></g></g></svg>