<svg xmlns="http://www.w3.org/2000/svg" xmlns:xlink="http://www.w3.org/1999/xlink" width="500" zoomAndPan="magnify" viewBox="0 0 375 374.999991" height="500" preserveAspectRatio="xMidYMid meet" version="1.0"><defs><g/></defs><g fill="#fcc509" fill-opacity="0.4"><g transform="translate(7.03291, 283.048752)"><g><path d="M 92.34375 3.9375 C 75.820312 3.9375 61.601562 1.21875 49.6875 -4.21875 C 37.769531 -9.664062 28.570312 -17.410156 22.09375 -27.453125 C 15.625 -37.492188 12.390625 -49.269531 12.390625 -62.78125 L 56.3125 -62.78125 C 56.3125 -53.394531 59.546875 -46.070312 66.015625 -40.8125 C 72.492188 -35.5625 81.175781 -32.9375 92.0625 -32.9375 C 101.445312 -32.9375 108.859375 -34.765625 114.296875 -38.421875 C 119.742188 -42.085938 122.46875 -47.203125 122.46875 -53.765625 C 122.46875 -60.710938 119.179688 -66.34375 112.609375 -70.65625 C 106.046875 -74.976562 95.816406 -78.640625 81.921875 -81.640625 C 58.835938 -86.523438 41.757812 -93.941406 30.6875 -103.890625 C 19.613281 -113.835938 14.078125 -126.785156 14.078125 -142.734375 C 14.078125 -160.753906 20.644531 -174.972656 33.78125 -185.390625 C 46.914062 -195.804688 64.84375 -201.015625 87.5625 -201.015625 C 103.132812 -201.015625 116.644531 -198.335938 128.09375 -192.984375 C 139.539062 -187.640625 148.40625 -180.132812 154.6875 -170.46875 C 160.976562 -160.800781 164.125 -149.304688 164.125 -135.984375 L 121.0625 -135.984375 C 121.0625 -144.804688 118.148438 -151.75 112.328125 -156.8125 C 106.515625 -161.882812 98.445312 -164.421875 88.125 -164.421875 C 78.738281 -164.421875 71.320312 -162.585938 65.875 -158.921875 C 60.4375 -155.265625 57.71875 -150.148438 57.71875 -143.578125 C 57.71875 -137.578125 60.71875 -132.507812 66.71875 -128.375 C 72.726562 -124.25 83.238281 -120.398438 98.25 -116.828125 C 122.84375 -111.015625 140.582031 -103.226562 151.46875 -93.46875 C 162.351562 -83.707031 167.796875 -71.039062 167.796875 -55.46875 C 167.796875 -36.882812 161.082031 -22.335938 147.65625 -11.828125 C 134.238281 -1.316406 115.800781 3.9375 92.34375 3.9375 Z M 92.34375 3.9375 "/></g></g></g><g fill="#5cc90c" fill-opacity="1"><g transform="translate(7.03291, 283.048752)"><g><path d="M 92.34375 3.9375 C 75.820312 3.9375 61.601562 1.21875 49.6875 -4.21875 C 37.769531 -9.664062 28.570312 -17.410156 22.09375 -27.453125 C 15.625 -37.492188 12.390625 -49.269531 12.390625 -62.78125 L 56.3125 -62.78125 C 56.3125 -53.394531 59.546875 -46.070312 66.015625 -40.8125 C 72.492188 -35.5625 81.175781 -32.9375 92.0625 -32.9375 C 101.445312 -32.9375 108.859375 -34.765625 114.296875 -38.421875 C 119.742188 -42.085938 122.46875 -47.203125 122.46875 -53.765625 C 122.46875 -60.710938 119.179688 -66.34375 112.609375 -70.65625 C 106.046875 -74.976562 95.816406 -78.640625 81.921875 -81.640625 C 58.835938 -86.523438 41.757812 -93.941406 30.6875 -103.890625 C 19.613281 -113.835938 14.078125 -126.785156 14.078125 -142.734375 C 14.078125 -160.753906 20.644531 -174.972656 33.78125 -185.390625 C 46.914062 -195.804688 64.84375 -201.015625 87.5625 -201.015625 C 103.132812 -201.015625 116.644531 -198.335938 128.09375 -192.984375 C 139.539062 -187.640625 148.40625 -180.132812 154.6875 -170.46875 C 160.976562 -160.800781 164.125 -149.304688 164.125 -135.984375 L 121.0625 -135.984375 C 121.0625 -144.804688 118.148438 -151.75 112.328125 -156.8125 C 106.515625 -161.882812 98.445312 -164.421875 88.125 -164.421875 C 78.738281 -164.421875 71.320312 -162.585938 65.875 -158.921875 C 60.4375 -155.265625 57.71875 -150.148438 57.71875 -143.578125 C 57.71875 -137.578125 60.71875 -132.507812 66.71875 -128.375 C 72.726562 -124.25 83.238281 -120.398438 98.25 -116.828125 C 122.84375 -111.015625 140.582031 -103.226562 151.46875 -93.46875 C 162.351562 -83.707031 167.796875 -71.039062 167.796875 -55.46875 C 167.796875 -36.882812 161.082031 -22.335938 147.65625 -11.828125 C 134.238281 -1.316406 115.800781 3.9375 92.34375 3.9375 Z M 92.34375 3.9375 "/></g></g></g><g fill="#ffffff" fill-opacity="1"><g transform="translate(172.671351, 283.048752)"><g><path d="M 70.953125 0 L 70.953125 -155.125 L 8.453125 -155.125 L 8.453125 -197.078125 L 178.203125 -197.078125 L 178.203125 -155.125 L 115.703125 -155.125 L 115.703125 0 Z M 70.953125 0 "/></g></g></g></svg>